<svg xmlns="http://www.w3.org/2000/svg" xml:space="preserve" width="1386.043" height="1281.333" viewBox="0 0 366.724 339.019"><g style="fill:#fff"><path d="M216 9588c-3-13-23-185-45-383l-40-360-6-845-7-845-31-45c-17-25-35-46-39-48s-8-174-8-382c0-349-1-380-17-392-17-12-18-66-15-925l2-913h1357l215-502c151-351 310-750 528-1321l312-818-44-252c-25-139-41-254-38-257 10-7 660-1279 660-1290 0-6 2-10 4-10 9 0 1153 655 1171 670 24 21 883 534 1125 672l175 99-3 162c-3 162-3 162-31 192-15 17-35 40-43 52-14 22-24 15-662-454-356-262-653-478-659-479-7-1-102-60-212-131-153-100-471-296-697-429-3-2-41 60-85 138l-78 143-5 295-5 295-33 3-32 3 2 247 3 247 608 3 608 2-3-310c-2-170 1-310 5-310s84 52 177 115c96 66 171 111 175 105 3-5 11-10 17-10s3 8-6 19c-16 18-22 15-184-96l-167-114-3 305-2 306H2920v-530h71l-1-287-1-287 81-148c45-81 87-148 92-148 16 0 480 283 710 432 109 70 202 128 207 128 6 0 299 213 653 474l643 474 37-42 37-41 1-162v-162l-137-78c-76-43-372-218-658-390C4117 651 3021 16 3014 23c-3 2-153 295-335 651l-330 646 42 232c23 128 41 240 41 248-1 8-102 281-225 605-124 325-266 697-316 828-49 131-187 464-306 740l-217 502-674-3-674-2v901c0 802 2 903 15 913 14 10 16 58 15 381v370l39 55 40 55 7 849 6 850 42 368c23 202 45 370 48 374 4 3 631-204 1395-461 763-257 1570-528 1793-603 223-74 407-136 409-138 1-1-11-45-28-96-38-115-121-447-127-508-2-25-13-114-24-199-19-138-21-207-20-670 0-698 14-875 85-1052 5-13-10-20-80-39-47-13-88-21-90-18-3 3-21 43-40 89l-35 84v217c0 194 2 224 20 270 15 41 20 77 20 156v102h-688l-8 90c-3 50-11 90-16 90s-7-8-4-17c3-10 6-53 8-95l3-78h695v-88c0-63-6-106-20-147-18-51-20-84-20-284v-226l37-90c20-49 38-91 39-93s47 9 102 23l100 27-29 79c-50 137-61 295-66 929l-5 555 27 215c28 217 98 529 160 709 14 41 24 75 22 75-151 50-1005 336-2147 720-811 273-1475 496-1477 496-1 0-5-10-7-22z" style="fill:#fff" transform="matrix(.03528 0 0 -.03528 -.236 339.02)"/><path d="M3890 8101c-39-152-74-294-76-316-3-22-14-110-24-195-17-137-20-221-20-713-1-575 8-776 38-880l17-58 110-62c61-34 129-79 152-100l42-39 63 21c54 18 85 21 251 21h189l39-31 38-30 113 81c62 44 151 98 197 120 74 36 106 44 275 70 105 17 201 30 214 30 22 0 22-2 22-132l-1-133-39-54c-22-30-37-57-35-60 6-5 3-9 53 66l42 62v301h527l84-56c46-31 91-64 100-73 13-12 21-73 39-276l23-260 51-110c50-110 50-110 52-220 1-130-4-127 139-101 70 13 615 66 615 61 0-1 13-87 30-191 35-227 33-214 66-489 14-121 28-272 31-336l5-116-32-12c-23-7-172-11-482-11-370 0-462 3-521 16-105 23-100 19-82 55 15 28 15 33 1 54-13 20-16 59-16 220v195h105l-3 273-3 272-117 71-117 70-5 115-5 114-292 3c-207 2-293-1-293-9 0-7 85-10 288-8l287 2 3-105 3-106-28-6c-23-5-496-66-509-66-2 0-4 14-4 30v30h-520v-151l-47-21c-27-11-51-26-55-32s-45-75-92-153l-84-142 69-100c38-55 74-103 79-106s32 1 59 9 110 20 184 27c253 22 529-20 702-109l80-41 95-140c52-77 98-140 103-141 4 0 7 95 7 210v210h100v-209c0-159 3-210 13-214 9-3 9-11-1-38-7-19-14-38-15-43s36-17 83-27c74-16 143-18 546-19 307 0 471 4 492 11 31 11 31 11 34 92 2 45 0 98-4 117-5 19-19 145-33 280-22 213-87 665-97 675-6 7-592-46-623-55-17-6-52-13-78-16l-47-7v105c0 104 0 105-51 218l-51 113-26 271c-14 149-28 272-31 274-3 1-48 31-99 67l-93 65h-694l-210-35c-115-19-318-54-450-79-132-24-274-50-315-57s-68-14-60-16 157 22 330 53c471 84 718 123 783 124 50 0 57-2 57-20 0-16-7-20-34-20-18 0-118-13-221-30-222-35-270-54-438-174-60-43-115-80-122-82-7-3-26 7-44 21l-31 27-198-1c-151 0-208-4-241-16-24-8-51-15-61-15-16 0-68 46-59 53 16 13 108 43 179 58 57 12 68 16 35 13-94-9-110-13-172-38l-62-26-55 32c-31 18-53 35-48 39 4 3 63 25 132 47 94 31 227 60 540 116 795 144 722 135 1150 139 311 3 404 7 547 25 248 32 781 82 860 82 68-1 68-1 96-41 22-33 27-50 27-103 0-102-10-96 165-96 84 0 155 4 157 8 2 5 188 34 413 66 226 32 417 59 425 62 13 3 15 37 12 241-3 192 0 260 14 350 10 62 16 114 13 117-2 2-515 156-1139 340l-1135 337-1035 360c-569 199-1081 378-1136 398l-102 37zm1065-88c512-178 1013-353 1115-388 102-36 689-214 1305-396s1122-333 1124-334c1-2-4-39-13-83-12-60-16-140-16-340v-261l-32-6c-18-3-218-32-444-65-332-48-436-60-538-60h-126v75c0 41-3 75-8 75-4 0-18 18-32 40l-25 40h-88c-88 0-571-44-876-80-120-14-265-21-535-26-428-7-398-3-1141-139-385-71-478-91-569-125-61-22-116-40-124-40-28 0-102 52-102 72 0 10-5 28-10 39-27 50-40 326-40 863 0 520 1 546 26 745s37 254 155 703c9 36 11 37 37 27 15-6 446-157 957-336zm525-3108v-185h-500v370h500zm679 119 111-67v-526l-105 2-105 2-2-204-3-203-92 133c-88 125-96 134-163 170-45 25-121 52-212 76l-143 37h-215c-205 0-238-3-369-36-12-3-150 174-151 194 0 4 37 69 83 145 67 111 91 142 123 160 21 13 42 23 47 23 4 0 7-49 7-110v-110h520v160c0 159 0 160 23 161 12 0 117 13 232 29 303 40 283 42 414-36zM2090 6850l-135-47-49-82-48-81h-308v240H660v-460l163 2 162 2-155 6-155 5-3 213-2 212h870v-235l162 2 161 2 52 82 51 82 131 46c73 26 135 50 139 54 13 12-8 6-146-43zM2228 6819c-3-30-8-33-105-71l-102-39-81-156c-44-86-78-158-76-160 3-3 56 0 118 6 63 6 263 11 446 11h332v99c0 55 3 108 6 118 5 16 4 16-10-1-12-15-16-43-16-113v-93h-337c-186 0-378-4-428-9-49-5-91-8-93-6-4 4 138 278 152 291 6 6 57 28 114 49 102 37 102 38 102 71 0 43-18 45-22 3z" style="fill:#fff" transform="matrix(.03528 0 0 -.03528 -.236 339.02)"/><path d="M8601 6754c-19-51-21-75-21-295v-240l39-157c59-237 81-335 81-354 0-9-27-74-60-144s-58-129-56-132c3-2 35 58 71 133l65 138-26 106c-14 58-43 177-65 264l-39 158v229c0 209 2 234 21 282 11 29 22 54 23 56 6 6 982-261 992-271 38-40 657-833 664-850 6-12 30-103 54-202l44-180-27-120c-15-66-33-131-41-145-31-59-315-550-350-605-20-33-65-137-99-231l-62-170-271-159c-150-88-283-169-297-181-18-14-1188-712-1294-771-4-2-42 1-84 8-61 10-88 21-143 57-37 24-75 58-85 76-10 17-42 67-71 112l-53 81-31 304c-16 167-33 321-36 342l-6 38 139-1c127-1 160 3 408 49 149 28 273 51 278 51 12 0 8 33-9 83-10 30-22 47-32 47-9 0-131-20-272-45-292-51-520-77-526-61-7 18-43 271-39 274 2 2 246 28 542 58 414 41 559 60 628 78 57 16 181 35 340 52 138 15 253 30 258 33 6 6-21 298-39 414l-6 37h-64c-76 0-72 16-48-200 8-78 14-143 12-145-5-4-333-34-336-30-6 6-41 358-47 470-7 129-32 348-33 290-1-22 5-101 12-174 8-74 12-140 10-145-5-14 41-444 48-452 6-5 349 25 357 32 2 2-3 76-12 165s-14 166-11 170c8 14 94 11 100-4 9-25 51-412 45-418-3-3-121-18-261-33-163-18-284-36-335-50-62-18-207-36-628-77l-548-54 6-65c8-79 35-232 44-242 11-12 293 21 551 66 186 32 257 41 263 32 9-14 29-87 25-91-2-2-128-26-280-54-245-45-292-51-412-51-123 0-136-2-136-17 0-10 16-168 35-352l35-334 33-46c18-25 50-75 70-111 52-92 136-149 255-171l85-16 256 152c893 530 1055 627 1066 639 7 7 135 84 285 171 150 88 273 164 275 169 28 98 129 350 165 411 207 348 370 641 370 661 0 14 9 67 21 117l21 92-51 193c-38 146-57 203-78 230-35 47-633 805-642 814-7 7-973 268-994 268-8 0-24-24-36-56zM1540 6508c0-83 0-83 35-111l35-28v-160c0-147-1-160-17-157s-18 18-20 128l-1 125-33 22c-32 22-41 23-246 23h-212l-4 53-3 52-2-60-2-60 211 3c200 3 212 2 245-18l34-22v-258h25c24 0 25-3 25-55v-55h65c37 0 65 4 65 10s-27 10-60 10h-60l2 208 3 207 63 3c34 2 60 7 57 11-3 5 18 52 45 105 28 53 50 98 50 101s-67 5-150 5h-150zm280 67c0-2-22-46-49-97l-49-93-51-3c-43-3-56 1-86 25-34 27-35 30-35 101v72h135c74 0 135-2 135-5z" style="fill:#fff" transform="matrix(.03528 0 0 -.03528 -.236 339.02)"/><path d="M1000 6388c-3-338-4-343-27-346l-23-3v-469h244c305 0 354-9 481-84 186-111 163-104 500-138l302-30 225 81c255 91 750 252 756 246 3-2-7-57-22-122-14-65-26-124-26-131 0-11 405-557 444-599 6-7 90-26 186-43 175-31 240-48 192-49-12-1-131-77-265-169-133-93-266-185-296-205-80-55-105-115-121-288l-12-134 36-143 36-143 155-213c129-177 161-215 188-222 30-9 51 2 367 191 184 110 360 215 390 232 38 23 84 66 150 142 89 103 95 109 112 94 15-13 18-33 18-102l1-86 187-196c103-107 263-290 357-406l170-211 61 48 62 49 133-162c73-89 134-164 136-166s6-2 9 1c7 7-265 338-278 338-4 0-34-20-65-45-32-24-60-41-64-37-3 4-82 102-174 217-97 121-245 288-348 394l-178 184 3 81 3 81-42 45c-23 25-182 225-353 445l-312 400-207 37c-113 21-211 40-217 42s-111 137-233 299l-222 294 31 138c17 76 29 139 28 141-6 5-576-181-793-259l-211-75-299 29c-335 33-329 31-500 138-48 31-102 55-135 62-30 7-59 16-64 21-6 4-124 8-263 8H960v440h50v200c0 110-2 200-5 200s-5-19-5-42zm3615-2099c176-225 321-413 323-417 1-5-39-57-90-116l-93-108-385-230c-344-205-388-229-413-221-21 6-66 59-182 218l-154 210-36 144-36 144 12 121c9 96 17 134 41 186l29 65 276 190c255 176 334 224 373 224 8 0 159-184 335-410z" style="fill:#fff" transform="matrix(.03528 0 0 -.03528 -.236 339.02)"/><path d="M1935 6364c-160-17-178-21-125-22 25-1 86 3 135 8 50 6 138 12 198 13l107 3v-265l60-113c33-62 60-107 60-99s-24 57-52 110l-53 96-5 140-5 140-100 1c-55 1-154-4-220-12zM2324 6354c3-9 6-30 6-48 0-31 3-34 68-59 62-25 79-27 210-27h142v150h-216c-193 0-215-2-210-16zm406-60v-66l-137 4c-115 3-148 8-195 27-57 22-58 23-58 62v39h390zM2320 6184c0-33 12-69 51-145 27-56 52-99 55-96s-18 50-45 106c-47 92-65 161-42 161 5 0 30-9 56-20 40-17 69-20 196-20h148l4-117 3-118 2 128 2 127h-159c-122 0-167 4-197 16-70 29-74 28-74-22zM6854 6152l-270-26-19-38c-10-21-16-40-14-42s55-14 118-25l113-21 207 25c113 14 212 25 219 25 8 0 11 7 9 18-3 9-8 38-12 65-8 57 29 55-351 19zm341-33c4-27 5-52 4-54-7-6-356-45-405-45-26 0-90 7-140 17-98 17-96 15-65 63 8 11 74 21 288 41 153 15 285 27 295 28 12 1 18-11 23-50zM6470 6125c-8-2-61-9-117-15-64-8-103-17-103-24 0-6 22-23 49-37 48-25 48-25 115-10 57 14 69 21 86 49 11 18 20 35 20 37 0 5-24 5-50 0zm15-39c-11-17-32-27-74-36-63-13-83-10-120 19l-24 19 74 10c41 5 93 10 117 11l42 1zM7950 6019c-341-43-572-68-637-69-91 0-103-2-103-17 0-10 13-133 29-273s48-451 71-690c37-386 45-442 68-500 14-36 26-66 28-68 1-2 229 22 506 52l503 56 84 42c47 23 80 43 74 45s-41-13-78-33l-67-37-467-53c-256-29-485-55-507-58l-42-5-21 56c-18 46-32 159-77 598-54 531-79 768-90 833l-5 32h68c37 1 326 33 641 73l572 73 10-35c5-20 27-105 49-189 23-84 41-157 41-161s-19-34-43-66c-79-110-79-114-52-363 13-119 31-311 40-427 10-115 22-214 27-220 6-6 7 9 3 40-3 28-14 154-25 280-12 127-27 286-35 355s-15 143-15 165c0 46 34 121 83 184l34 44-42 161c-64 245-65 246-78 245-7-1-253-32-547-70zM6399 5955c-3-2 5-116 18-252l23-248 50-114c38-86 50-125 50-163 0-32 5-50 14-54 7-3 60 1 117 9s106 13 108 11 7-21 11-41l8-38 1 48c1 39-2 47-16 47-19 0-136-16-190-25-33-6-33-6-33 37 0 29-17 81-54 168l-54 125-21 221c-12 122-21 229-21 238 0 14 34 16 344 16h343l6-57c3-32 16-172 28-310 13-139 26-253 30-253s6 15 3 33c-2 17-13 133-24 257s-22 253-26 288l-6 62h-352c-194 0-355-2-357-5z" style="fill:#fff" transform="matrix(.03528 0 0 -.03528 -.236 339.02)"/><path d="M1610 5744v-151l51-11c28-7 68-25 88-41 105-82 91-78 391-106l275-25 530 173c515 169 530 174 527 198-1 13-7 40-12 60l-10 35-322-73c-178-40-335-75-350-78l-27-6-4 88-3 88-2-96-2-95 347 77c247 56 349 75 354 67 9-14 22-79 17-83-2-1-239-79-528-173l-525-170-255 24c-140 13-264 26-275 29-11 2-52 29-91 58-53 40-84 56-118 61l-46 7v278l68 3 67 3-73 5-72 5zM4839 5782c-52-37-113-82-134-99-65-54-22-37 51 20 38 29 97 73 132 97 34 23 62 44 62 46 0 11-24-3-111-64zM3788 5758l-46-40 320-396c176-219 329-406 340-417 19-20 19-20 52 19l33 39-290 371c-160 204-306 392-326 417l-36 46zm366-390 315-401-21-29c-11-16-24-28-30-26-5 2-155 183-334 403l-324 400 32 28c18 15 36 27 40 27s149-181 322-402zM4208 5727l-57-23 90-107c50-60 97-111 103-113 13-5 316 185 316 198 0 3-12 20-26 37l-26 31-171-1c-152 0-178-3-229-22zm409-9c13-12 23-26 23-32-1-10-290-201-294-194-2 2-40 48-85 102s-78 103-74 107c27 27 95 38 247 38 151 1 161 0 183-21zM3602 5717c-23-11-41-27-40-34 4-15 719-903 728-903 3 0 23 17 44 39l37 38-347 439c-191 242-354 440-363 441s-35-8-59-20zm280-262c117-148 271-343 342-433l129-164-31-31c-28-28-34-30-46-17-8 8-170 208-360 445l-345 430 42 22c23 12 45 21 49 20 3-1 102-123 220-272zM4452 5484c-34-25-66-43-72-39-16 10-12-11 5-25 8-7 15-8 15-2 0 5 26 29 58 52 31 24 59 45 61 47 2 1 2 5-1 8-2 3-32-16-66-41zM4493 5426c-46-38-59-54-50-61 6-5 33-35 60-67l47-56v-290l78 23c55 15 99 36 145 69 37 26 67 51 67 54 0 4-50 75-111 157-61 83-120 165-132 182-12 18-26 34-32 36-5 3-38-19-72-47zm202-144c69-95 125-176 125-181 0-4-30-28-67-54-63-42-173-83-187-69-3 3-6 65-6 138v133l-52 62-52 63 49 43c27 24 53 42 57 41 4-2 64-81 133-176zM4668 4907c-65-50-68-54-67-92l2-40 6 38c5 32 16 47 66 87l60 49 43-25c23-14 42-23 42-21 0 4-77 57-82 57-2 0-33-24-70-53zM4785 4860c-9-16-13-30-11-30 3 0 12 14 21 30 9 17 13 30 11 30-3 0-12-13-21-30zM4750 4800c-6-11-8-20-6-20 3 0 10 9 16 20s8 20 6 20c-3 0-10-9-16-20zM4591 4757c-1-9 10-30 24-45 14-16 31-37 39-47 12-16 15-15 36 21 13 22 30 49 38 62 8 12 12 22 9 22s-20-24-37-52l-33-53-29 35c-16 19-34 44-38 55-8 17-9 18-9 2zM5043 4316c-84-17-93-21-104-48-11-26-9-32 13-56 201-219 541-614 678-787 139-176 528-641 610-729 17-17 22-16 146 47 71 36 167 80 214 97 47 18 103 40 125 50s90 38 150 63c61 25 162 70 225 100 63 29 132 60 154 67 25 8 34 15 26 20-9 6-10 30-5 91 14 169 12 197-11 214-12 8-25 30-28 49-4 21-11 33-19 31-17-7-450-45-505-45-31 0-59 8-89 26-41 24-46 24-62 10-26-24-40-20-57 17-15 31-15 36 0 65 9 17 16 55 16 86v56l213 3c196 3 192 3-53 3-337 1-404 7-503 47-75 31-82 37-206 172-70 77-147 166-170 199-35 47-56 64-109 89-155 72-460 102-649 63zm445-16c53-12 133-34 177-51 73-27 84-35 115-81 19-28 44-61 55-73 236-266 237-266 321-306 66-31 100-40 185-49 181-19 169-15 169-63 0-24-9-60-20-81-18-37-19-40-2-68 27-47 38-52 70-33 28 17 30 17 73-8l44-26 270 24c285 25 285 25 285-22 0-12 8-24 19-28 27-8 37-85 17-127-10-19-16-58-16-103v-72l-97-43c-54-23-125-55-158-70-103-47-316-136-415-175-52-20-144-61-204-92-72-36-114-52-122-47-29 21-416 478-594 704-107 135-312 377-457 538-242 271-261 295-251 317 15 34 118 52 296 54 108 1 166-4 240-19zM7290 3781c14-4 27-17 31-31 4-15 7-18 8-8 2 32-11 48-38 47l-26-1zM7188 3773c12-2 32-2 45 0 12 2 2 4-23 4s-35-2-22-4zM7088 3763c12-2 32-2 45 0 12 2 2 4-23 4s-35-2-22-4zM6983 3753c15-2 37-2 50 0 12 2 0 4-28 4-27 0-38-2-22-4zM7332 3690c0-19 2-27 5-17 2 9 2 25 0 35-3 9-5 1-5-18zM7342 3620c0-19 2-27 5-17 2 9 2 25 0 35-3 9-5 1-5-18zM7353 3545c0-22 2-30 4-17 2 12 2 30 0 40-3 9-5-1-4-23zM7362 3470c0-19 2-27 5-17 2 9 2 25 0 35-3 9-5 1-5-18zM7368 3290c-2-77 0-140 5-140 4 0 7 63 7 140s-2 140-4 140c-3 0-6-63-8-140zM7313 3143c9-2 23-2 30 0 6 3-1 5-18 5-16 0-22-2-12-5zM7380 3065c-41-18-290-130-552-249-263-118-507-235-542-258-35-24-235-171-444-328l-379-284 64-81 64-80-3-133c-3-117-1-132 13-132 28 0 110 48 429 250 168 106 338 213 378 238s69 48 64 51c-10 7-172 345-172 359 0 12 798 395 808 388 5-3 37-50 71-105 35-56 69-101 75-101 7 0 43 10 81 23l68 23 39 100c38 96 39 101 27 156-10 52-6 147 8 185 8 21-16 15-97-22zm80 8c0-5-4-33-9-65-7-42-6-68 5-104 14-47 13-50-22-140-19-51-41-98-48-104-10-8-120-50-131-50-2 0-103 157-140 217-1 2-185-85-409-192s-412-195-417-195c-17 0-10-17 77-201 69-148 83-184 72-194-20-19-720-459-785-493-50-27-53-22-53 114v127l-55 72c-30 39-55 74-55 78 0 6 721 549 772 582 8 6 35 23 59 39 43 29 1103 514 1127 515 6 1 12-2 12-6zM7588 2946l-26-21 16-77c9-43 20-78 25-78 10 0 146 103 146 110 0 3-30 23-68 46l-68 41zm110-47c12-7 22-17 22-21 0-8-100-88-110-88-4 0-13 29-20 66-12 60-11 66 6 79 20 14 25 13 102-36zM5758 2327c-197-155-470-367-608-471s-248-191-245-194c2-3 71 46 152 108 82 62 194 147 251 189s257 197 445 345 350 274 359 280c18 11 24 27 11 25-5 0-169-127-365-282z" style="fill:#fff" transform="matrix(.03528 0 0 -.03528 -.236 339.02)"/></g></svg>